<svg width="15" height="15" viewBox="0 0 15 15" fill="none" xmlns="http://www.w3.org/2000/svg">
<path d="M11.75 0H3.25C2.38805 0 1.5614 0.34241 0.951903 0.951903C0.34241 1.5614 0 2.38805 0 3.25L0 11.75C0 12.612 0.34241 13.4386 0.951903 14.0481C1.5614 14.6576 2.38805 15 3.25 15H11.75C12.612 15 13.4386 14.6576 14.0481 14.0481C14.6576 13.4386 15 12.612 15 11.75V3.25C15 2.38805 14.6576 1.5614 14.0481 0.951903C13.4386 0.34241 12.612 0 11.75 0ZM9.8925 4.3C9.89317 4.38817 9.87629 4.47559 9.84285 4.55718C9.80942 4.63877 9.76009 4.7129 9.69774 4.77524C9.6354 4.83759 9.56127 4.88692 9.47968 4.92035C9.39809 4.95379 9.31067 4.97067 9.2225 4.97H8.8175C8.5075 4.97 8.35 4.97 8.35 5.5025V6.21C8.35 6.25243 8.36686 6.29313 8.39686 6.32314C8.42687 6.35314 8.46757 6.37 8.51 6.37H9.195C9.32761 6.37 9.45479 6.42268 9.54855 6.51645C9.64232 6.61021 9.695 6.73739 9.695 6.87V7.84C9.695 7.97261 9.64232 8.09979 9.54855 8.19355C9.45479 8.28732 9.32761 8.34 9.195 8.34H8.5C8.45757 8.34 8.41687 8.35686 8.38686 8.38686C8.35686 8.41687 8.34 8.45757 8.34 8.5V11.5C8.34 11.6326 8.28732 11.7598 8.19355 11.8536C8.09979 11.9473 7.97261 12 7.84 12H6.64C6.50739 12 6.38021 11.9473 6.28645 11.8536C6.19268 11.7598 6.14 11.6326 6.14 11.5V8.5C6.14 8.45757 6.12314 8.41687 6.09314 8.38686C6.06313 8.35686 6.02243 8.34 5.98 8.34H5.3575C5.22489 8.34 5.09771 8.28732 5.00395 8.19355C4.91018 8.09979 4.8575 7.97261 4.8575 7.84V6.87C4.8575 6.73739 4.91018 6.61021 5.00395 6.51645C5.09771 6.42268 5.22489 6.37 5.3575 6.37H5.985C6.02743 6.37 6.06813 6.35314 6.09814 6.32314C6.12814 6.29313 6.145 6.25243 6.145 6.21V5.3075C6.145 3.905 6.985 3 8.2825 3H8.7825H9.2475C9.42256 3.00263 9.58953 3.0742 9.71215 3.19916C9.83478 3.32413 9.90318 3.49242 9.9025 3.6675L9.8925 4.3Z" fill="#1C7EEF"/>
</svg>
