<?xml version="1.0" encoding="UTF-8"?>
<!DOCTYPE svg PUBLIC "-//W3C//DTD SVG 1.1//EN" "http://www.w3.org/Graphics/SVG/1.1/DTD/svg11.dtd">
<svg xmlns="http://www.w3.org/2000/svg" version="1.1" width="2500px" height="723px" style="shape-rendering:geometricPrecision; text-rendering:geometricPrecision; image-rendering:optimizeQuality; fill-rule:evenodd; clip-rule:evenodd" xmlns:xlink="http://www.w3.org/1999/xlink">
<g><path style="opacity:0.997" fill="#fefefe" d="M 390.5,5.5 C 399.791,5.39522 407.624,8.72855 414,15.5C 441.423,54.5978 470.757,92.2645 502,128.5C 528.469,156.637 555.303,184.47 582.5,212C 613.234,240.515 644.9,267.849 677.5,294C 698.133,309.984 719.466,324.984 741.5,339C 756.241,351.902 756.907,365.235 743.5,379C 718.287,395.106 693.954,412.439 670.5,431C 570.138,511.686 482.638,604.186 408,708.5C 404.142,711.842 399.642,713.509 394.5,713.5C 386.267,713.485 379.434,710.485 374,704.5C 366.582,692.662 358.915,680.996 351,669.5C 264.973,555.133 163.14,457.633 45.5,377C 32.3613,363.764 33.0279,351.097 47.5,339C 140.507,275.024 224.007,199.857 298,113.5C 325.143,81.3618 351.143,48.3618 376,14.5C 380.042,10.0704 384.875,7.07043 390.5,5.5 Z M 386.5,97.5 C 401.8,96.658 415.8,100.491 428.5,109C 513.493,172.659 586.993,247.492 649,333.5C 654.887,341.77 658.387,350.937 659.5,361C 657.841,370.826 654.341,379.993 649,388.5C 643.493,397.515 637.493,406.182 631,414.5C 573.316,485.853 508.149,549.353 435.5,605C 426.194,612.487 415.861,618.154 404.5,622C 397.383,624.172 390.383,623.839 383.5,621C 356.209,605.377 330.876,587.043 307.5,566C 274.426,536.596 242.259,506.096 211,474.5C 182.675,444.522 157.008,412.522 134,378.5C 128.532,367.295 128.199,355.962 133,344.5C 136.414,338.003 140.081,331.67 144,325.5C 181.101,276.937 222.267,231.771 267.5,190C 300.418,159.069 335.085,130.403 371.5,104C 376.367,101.226 381.367,99.0593 386.5,97.5 Z M 422.5,282.5 C 417.167,282.5 411.833,282.5 406.5,282.5C 406.5,283.5 406.5,284.5 406.5,285.5C 407.556,320.845 408.889,356.178 410.5,391.5C 399.143,392.999 387.809,392.832 376.5,391C 376.043,390.586 375.709,390.086 375.5,389.5C 377.657,353.885 379.324,318.218 380.5,282.5C 371.808,282.831 363.141,282.498 354.5,281.5C 367.952,243.596 381.119,205.596 394,167.5C 407.341,205.691 421.175,243.691 435.5,281.5C 431.217,282.492 426.884,282.826 422.5,282.5 Z M 310.5,304.5 C 312.989,304.298 315.323,304.798 317.5,306C 327.564,313.061 337.898,319.727 348.5,326C 332.823,329.113 318.157,334.78 304.5,343C 297.777,348.217 292.777,354.717 289.5,362.5C 293.334,375.167 301.668,383.334 314.5,387C 372.712,405.543 430.712,404.876 488.5,385C 496.232,380.923 503.066,375.756 509,369.5C 512.455,362.364 512.122,355.364 508,348.5C 501.017,340.921 492.517,335.755 482.5,333C 474.741,333.353 467.074,334.52 459.5,336.5C 457.06,326.679 453.727,317.179 449.5,308C 470.962,313.447 492.629,318.447 514.5,323C 510.583,324.479 506.583,325.646 502.5,326.5C 502.281,327.675 502.614,328.675 503.5,329.5C 513.27,334.1 521.77,340.433 529,348.5C 536.012,361.637 533.845,373.137 522.5,383C 510.727,391.719 497.727,398.053 483.5,402C 414.062,420.696 345.396,418.363 277.5,395C 265.265,390.304 254.432,383.471 245,374.5C 236.767,362.775 237.1,351.108 246,339.5C 264.448,322.193 285.948,310.526 310.5,304.5 Z M 375.5,421.5 C 387.505,422.778 399.505,422.778 411.5,421.5C 413.87,458.175 415.703,494.841 417,531.5C 401.561,533.778 386.061,533.778 370.5,531.5C 372.107,494.823 373.773,458.156 375.5,421.5 Z"/></g>
<g><path style="opacity:1" fill="#fefefe" d="M 845.5,99.5 C 895.167,99.5 944.833,99.5 994.5,99.5C 994.5,278.167 994.5,456.833 994.5,635.5C 944.833,635.5 895.167,635.5 845.5,635.5C 845.5,456.833 845.5,278.167 845.5,99.5 Z"/></g>
<g><path style="opacity:1" fill="#fefefe" d="M 1220.5,313.5 C 1299.66,314.499 1379,314.833 1458.5,314.5C 1458.5,348.833 1458.5,383.167 1458.5,417.5C 1379,417.167 1299.66,417.501 1220.5,418.5C 1220.5,456.167 1220.5,493.833 1220.5,531.5C 1307.17,531.5 1393.83,531.5 1480.5,531.5C 1480.5,566.167 1480.5,600.833 1480.5,635.5C 1344.17,635.5 1207.83,635.5 1071.5,635.5C 1071.5,456.833 1071.5,278.167 1071.5,99.5C 1207.83,99.5 1344.17,99.5 1480.5,99.5C 1480.5,134.167 1480.5,168.833 1480.5,203.5C 1393.83,203.5 1307.17,203.5 1220.5,203.5C 1220.5,240.167 1220.5,276.833 1220.5,313.5 Z"/></g>
<g><path style="opacity:1" fill="#fefefe" d="M 1562.5,99.5 C 1698.83,99.5 1835.17,99.5 1971.5,99.5C 1971.5,134.167 1971.5,168.833 1971.5,203.5C 1884.83,203.5 1798.17,203.5 1711.5,203.5C 1711.5,240.167 1711.5,276.833 1711.5,313.5C 1791.17,313.5 1870.83,313.5 1950.5,313.5C 1950.5,348.5 1950.5,383.5 1950.5,418.5C 1870.83,418.5 1791.17,418.5 1711.5,418.5C 1711.17,456.073 1711.5,493.573 1712.5,531C 1798.83,531.5 1885.17,531.667 1971.5,531.5C 1971.5,566.167 1971.5,600.833 1971.5,635.5C 1835.17,635.5 1698.83,635.5 1562.5,635.5C 1562.5,456.833 1562.5,278.167 1562.5,99.5 Z"/></g>
<g><path style="opacity:0.999" fill="#fefefe" d="M 2203.5,313.5 C 2282.66,314.499 2362,314.833 2441.5,314.5C 2441.5,348.833 2441.5,383.167 2441.5,417.5C 2361.83,417.5 2282.17,417.5 2202.5,417.5C 2202.17,455.67 2202.5,493.67 2203.5,531.5C 2290.17,531.5 2376.83,531.5 2463.5,531.5C 2463.5,566.167 2463.5,600.833 2463.5,635.5C 2327.17,635.5 2190.83,635.5 2054.5,635.5C 2054.5,456.833 2054.5,278.167 2054.5,99.5C 2190.83,99.5 2327.17,99.5 2463.5,99.5C 2463.5,134.167 2463.5,168.833 2463.5,203.5C 2376.83,203.5 2290.17,203.5 2203.5,203.5C 2203.5,240.167 2203.5,276.833 2203.5,313.5 Z"/></g>
<g><path style="opacity:0.998" fill="#fefefe" d="M 392.5,113.5 C 398.358,113.705 404.025,114.872 409.5,117C 416.498,120.497 423.165,124.497 429.5,129C 496.483,180.314 556.65,238.814 610,304.5C 619.245,316.656 628.245,328.989 637,341.5C 643.426,353.213 644.092,365.213 639,377.5C 624.53,399.309 608.53,419.976 591,439.5C 590.667,440.5 590.333,441.5 590,442.5C 571.167,462 552.333,481.5 533.5,501C 508.027,526.481 481.36,550.481 453.5,573C 441.167,582 428.833,591 416.5,600C 403.31,608.141 389.977,608.475 376.5,601C 290.413,538.246 215.579,464.08 152,378.5C 143.575,362.421 145.242,347.421 157,333.5C 219.402,251.762 292.236,180.928 375.5,121C 380.782,117.353 386.448,114.853 392.5,113.5 Z M 422.5,282.5 C 417.167,282.5 411.833,282.5 406.5,282.5C 406.5,283.5 406.5,284.5 406.5,285.5C 407.556,320.845 408.889,356.178 410.5,391.5C 399.143,392.999 387.809,392.832 376.5,391C 376.043,390.586 375.709,390.086 375.5,389.5C 377.657,353.885 379.324,318.218 380.5,282.5C 371.808,282.831 363.141,282.498 354.5,281.5C 367.952,243.596 381.119,205.596 394,167.5C 407.341,205.691 421.175,243.691 435.5,281.5C 431.217,282.492 426.884,282.826 422.5,282.5 Z M 310.5,304.5 C 285.948,310.526 264.448,322.193 246,339.5C 237.1,351.108 236.767,362.775 245,374.5C 254.432,383.471 265.265,390.304 277.5,395C 345.396,418.363 414.062,420.696 483.5,402C 497.727,398.053 510.727,391.719 522.5,383C 533.845,373.137 536.012,361.637 529,348.5C 521.77,340.433 513.27,334.1 503.5,329.5C 502.614,328.675 502.281,327.675 502.5,326.5C 506.583,325.646 510.583,324.479 514.5,323C 492.629,318.447 470.962,313.447 449.5,308C 453.727,317.179 457.06,326.679 459.5,336.5C 467.074,334.52 474.741,333.353 482.5,333C 492.517,335.755 501.017,340.921 508,348.5C 512.122,355.364 512.455,362.364 509,369.5C 503.066,375.756 496.232,380.923 488.5,385C 430.712,404.876 372.712,405.543 314.5,387C 301.668,383.334 293.334,375.167 289.5,362.5C 292.777,354.717 297.777,348.217 304.5,343C 318.157,334.78 332.823,329.113 348.5,326C 337.898,319.727 327.564,313.061 317.5,306C 315.323,304.798 312.989,304.298 310.5,304.5 Z M 375.5,421.5 C 373.773,458.156 372.107,494.823 370.5,531.5C 386.061,533.778 401.561,533.778 417,531.5C 415.703,494.841 413.87,458.175 411.5,421.5C 399.505,422.778 387.505,422.778 375.5,421.5 Z"/></g>
<g><path style="opacity:0.887" fill="#f6f8fb" d="M 422.5,282.5 C 417.061,282.936 411.728,283.936 406.5,285.5C 406.5,284.5 406.5,283.5 406.5,282.5C 411.833,282.5 417.167,282.5 422.5,282.5 Z"/></g>
<g><path style="opacity:0.882" fill="#f6f8fb" d="M 2203.5,313.5 C 2283.17,313.5 2362.83,313.5 2442.5,313.5C 2442.83,348.337 2442.5,383.004 2441.5,417.5C 2441.5,383.167 2441.5,348.833 2441.5,314.5C 2362,314.833 2282.66,314.499 2203.5,313.5 Z"/></g>
<g><path style="opacity:0.937" fill="#f2f6fa" d="M 1220.5,313.5 C 1300.17,313.5 1379.83,313.5 1459.5,313.5C 1459.5,348.5 1459.5,383.5 1459.5,418.5C 1379.83,418.5 1300.17,418.5 1220.5,418.5C 1299.66,417.501 1379,417.167 1458.5,417.5C 1458.5,383.167 1458.5,348.833 1458.5,314.5C 1379,314.833 1299.66,314.499 1220.5,313.5 Z"/></g>
<g><path style="opacity:0.663" fill="#f8f9fc" d="M 2441.5,417.5 C 2362.34,418.499 2283,418.833 2203.5,418.5C 2203.5,456.167 2203.5,493.833 2203.5,531.5C 2202.5,493.67 2202.17,455.67 2202.5,417.5C 2282.17,417.5 2361.83,417.5 2441.5,417.5 Z"/></g>
</svg>
