<svg width="15" height="15" viewBox="0 0 15 15" fill="none" xmlns="http://www.w3.org/2000/svg">
<path d="M9.5 5C9.5 5.13261 9.55268 5.25979 9.64645 5.35355C9.74022 5.44732 9.86739 5.5 10 5.5C10.1326 5.5 10.2598 5.44732 10.3536 5.35355C10.4473 5.25979 10.5 5.13261 10.5 5C10.5 4.86739 10.4473 4.74022 10.3536 4.64645C10.2598 4.55268 10.1326 4.5 10 4.5C9.86739 4.5 9.74022 4.55268 9.64645 4.64645C9.55268 4.74022 9.5 4.86739 9.5 5Z" fill="#FF2F61"/>
<path d="M5.5 7.5C5.5 8.03043 5.71071 8.53914 6.08579 8.91421C6.46086 9.28929 6.96957 9.5 7.5 9.5C8.03043 9.5 8.53914 9.28929 8.91421 8.91421C9.28929 8.53914 9.5 8.03043 9.5 7.5C9.5 6.96957 9.28929 6.46086 8.91421 6.08579C8.53914 5.71071 8.03043 5.5 7.5 5.5C6.96957 5.5 6.46086 5.71071 6.08579 6.08579C5.71071 6.46086 5.5 6.96957 5.5 7.5Z" fill="#FF2F61"/>
<path d="M11.75 0H3.25C2.38805 0 1.5614 0.34241 0.951903 0.951903C0.34241 1.5614 0 2.38805 0 3.25L0 11.75C0 12.612 0.34241 13.4386 0.951903 14.0481C1.5614 14.6576 2.38805 15 3.25 15H11.75C12.612 15 13.4386 14.6576 14.0481 14.0481C14.6576 13.4386 15 12.612 15 11.75V3.25C15 2.38805 14.6576 1.5614 14.0481 0.951903C13.4386 0.34241 12.612 0 11.75 0ZM12 9.9375C11.9993 10.4843 11.7818 11.0085 11.3952 11.3952C11.0085 11.7818 10.4843 11.9993 9.9375 12H5.0625C4.51569 11.9993 3.99147 11.7818 3.60482 11.3952C3.21817 11.0085 3.00066 10.4843 3 9.9375V5.0625C3.00066 4.51569 3.21817 3.99147 3.60482 3.60482C3.99147 3.21817 4.51569 3.00066 5.0625 3H9.9375C10.4843 3.00066 11.0085 3.21817 11.3952 3.60482C11.7818 3.99147 11.9993 4.51569 12 5.0625V9.9375Z" fill="#FF2F61"/>
</svg>
