<svg width="15" height="15" viewBox="0 0 15 15" fill="none" xmlns="http://www.w3.org/2000/svg">
<path d="M9.4375 7.07989L6.865 5.63239C6.79166 5.59149 6.70893 5.57044 6.62496 5.57132C6.541 5.57219 6.45872 5.59497 6.38625 5.63738C6.31378 5.6798 6.25364 5.7404 6.21177 5.81318C6.1699 5.88597 6.14775 5.96842 6.1475 6.05239V8.94739C6.14775 9.03135 6.1699 9.11381 6.21177 9.18659C6.25364 9.25937 6.31378 9.31997 6.38625 9.36239C6.45872 9.40481 6.541 9.42758 6.62496 9.42846C6.70893 9.42933 6.79166 9.40828 6.865 9.36739L9.4375 7.91989C9.51186 7.87784 9.57373 7.8168 9.61677 7.743C9.65982 7.66921 9.6825 7.58531 9.6825 7.49989C9.6825 7.41446 9.65982 7.33056 9.61677 7.25677C9.57373 7.18298 9.51186 7.12194 9.4375 7.07989Z" fill="#FF3C2F"/>
<path d="M11.75 0H3.25C2.38805 0 1.5614 0.34241 0.951903 0.951903C0.34241 1.5614 0 2.38805 0 3.25L0 11.75C0 12.612 0.34241 13.4386 0.951903 14.0481C1.5614 14.6576 2.38805 15 3.25 15H11.75C12.612 15 13.4386 14.6576 14.0481 14.0481C14.6576 13.4386 15 12.612 15 11.75V3.25C15 2.38805 14.6576 1.5614 14.0481 0.951903C13.4386 0.34241 12.612 0 11.75 0ZM12 10C11.9993 10.2982 11.8806 10.5839 11.6698 10.7948C11.4589 11.0056 11.1732 11.1243 10.875 11.125H4.125C3.82683 11.1243 3.54107 11.0056 3.33023 10.7948C3.1194 10.5839 3.00066 10.2982 3 10V5C3.00066 4.70183 3.1194 4.41607 3.33023 4.20523C3.54107 3.9944 3.82683 3.87566 4.125 3.875H10.875C11.1732 3.87566 11.4589 3.9944 11.6698 4.20523C11.8806 4.41607 11.9993 4.70183 12 5V10Z" fill="#FF3C2F"/>
</svg>
