<svg xmlns="http://www.w3.org/2000/svg" fill="none" viewBox="-1 -1 24 24" id="Calendar-Add--Streamline-Plump.svg" height="24" width="24"><desc>Calendar Add Streamline Icon: https://streamlinehq.com</desc><g id="calendar-add--add-calendar-date-day-month"><path id="Vector 1386" stroke="#000000" stroke-linecap="round" stroke-linejoin="round" d="M11 9.625v6.416666666666666" stroke-width="2"></path><path id="Vector 1387" stroke="#000000" stroke-linecap="round" stroke-linejoin="round" d="m14.208333333333332 12.833333333333332 -6.416666666666666 0" stroke-width="2"></path><path id="Vector 1388" stroke="#000000" stroke-linecap="round" stroke-linejoin="round" d="M11 9.166666666666666v7.333333333333333" stroke-width="2"></path><path id="Vector 1389" stroke="#000000" stroke-linecap="round" stroke-linejoin="round" d="m14.666666666666666 12.833333333333332 -7.333333333333333 0" stroke-width="2"></path><path id="Subtract" stroke="#000000" stroke-linecap="round" stroke-linejoin="round" d="M5.043041666666666 3.9242499999999993a37.675 37.675 0 0 0 -1.353 0.154c-1.0078749999999999 0.13429166666666664 -1.7769583333333332 0.8928333333333333 -1.9213333333333333 1.8993333333333333C1.5817083333333333 7.281083333333333 1.375 9.355041666666667 1.375 12.145833333333332c0 2.79125 0.20670833333333333 4.86475 0.3937083333333333 6.16825 0.144375 1.0065 0.9134583333333334 1.7645833333333334 1.9213333333333333 1.8993333333333333 1.4345833333333333 0.191125 3.8408333333333333 0.4115833333333333 7.309958333333333 0.4115833333333333 3.4686666666666666 0 5.874916666666667 -0.2204583333333333 7.309958333333333 -0.4115833333333333 1.0078749999999999 -0.13474999999999998 1.7769583333333332 -0.8928333333333333 1.9213333333333333 -1.8993333333333333 0.18699999999999997 -1.3034999999999999 0.3937083333333333 -3.3774583333333332 0.3937083333333333 -6.16825 0 -2.79125 -0.20670833333333333 -4.86475 -0.3937083333333333 -6.16825 -0.144375 -1.0065 -0.9134583333333334 -1.7645833333333334 -1.9213333333333333 -1.8993333333333333a37.68370833333333 37.68370833333333 0 0 0 -1.353 -0.154" stroke-width="2"></path><path id="Subtract_2" stroke="#000000" stroke-linecap="round" stroke-linejoin="round" d="M13.291666666666666 3.700583333333333A75.183625 75.183625 0 0 0 11 3.6666666666666665c-0.8231666666666666 0 -1.58675 0.012374999999999999 -2.2916666666666665 0.033916666666666664" stroke-width="2"></path><path id="Vector" stroke="#000000" stroke-linecap="round" stroke-linejoin="round" d="M13.297625 4.248749999999999c0.01970833333333333 0.9533333333333334 0.6457916666666667 1.6930833333333333 1.599125 1.7077499999999999a15.113999999999999 15.113999999999999 0 0 0 0.45649999999999996 0c0.9533333333333334 -0.014666666666666666 1.5794166666666667 -0.7544166666666666 1.599125 -1.7077499999999999a28.078416666666666 28.078416666666666 0 0 0 0 -1.1641666666666666c-0.01970833333333333 -0.9533333333333334 -0.6457916666666667 -1.6930833333333333 -1.599125 -1.7077499999999999a14.870166666666668 14.870166666666668 0 0 0 -0.45649999999999996 0c-0.9533333333333334 0.014666666666666666 -1.5794166666666667 0.7544166666666666 -1.599125 1.7077499999999999a28.078416666666666 28.078416666666666 0 0 0 0 1.1641666666666666Z" stroke-width="2"></path><path id="Vector_2" stroke="#000000" stroke-linecap="round" stroke-linejoin="round" d="M5.047625 4.248749999999999c0.01970833333333333 0.9533333333333334 0.6457916666666667 1.6930833333333333 1.599125 1.7077499999999999a15.113999999999999 15.113999999999999 0 0 0 0.45649999999999996 0c0.9533333333333334 -0.014666666666666666 1.5794166666666667 -0.7544166666666666 1.599125 -1.7077499999999999a28.078416666666666 28.078416666666666 0 0 0 0 -1.1641666666666666c-0.01970833333333333 -0.9533333333333334 -0.6457916666666667 -1.6930833333333333 -1.599125 -1.7077499999999999a14.870166666666668 14.870166666666668 0 0 0 -0.45649999999999996 0c-0.9533333333333334 0.014666666666666666 -1.5794166666666667 0.7544166666666666 -1.599125 1.7077499999999999a28.078416666666666 28.078416666666666 0 0 0 0 1.1641666666666666Z" stroke-width="2"></path></g></svg>