<svg width="14" height="15" viewBox="0 0 14 15" fill="none" xmlns="http://www.w3.org/2000/svg">
<path d="M8.59182 7.07989L6.24984 5.63239C6.18307 5.59149 6.10775 5.57044 6.03131 5.57132C5.95487 5.57219 5.87996 5.59497 5.81399 5.63738C5.74802 5.6798 5.69326 5.7404 5.65514 5.81318C5.61702 5.88597 5.59686 5.96842 5.59663 6.05239V8.94739C5.59686 9.03135 5.61702 9.11381 5.65514 9.18659C5.69326 9.25937 5.74802 9.31997 5.81399 9.36239C5.87996 9.40481 5.95487 9.42758 6.03131 9.42846C6.10775 9.42933 6.18307 9.40828 6.24984 9.36739L8.59182 7.91989C8.65952 7.87784 8.71584 7.8168 8.75503 7.743C8.79422 7.66921 8.81487 7.58531 8.81487 7.49989C8.81487 7.41446 8.79422 7.33056 8.75503 7.25677C8.71584 7.18298 8.65952 7.12194 8.59182 7.07989Z" fill="#FF3C2F"/>
<path d="M10.6971 0H2.95877C2.17406 0 1.42148 0.34241 0.866604 0.951903C0.311727 1.5614 0 2.38805 0 3.25L0 11.75C0 12.612 0.311727 13.4386 0.866604 14.0481C1.42148 14.6576 2.17406 15 2.95877 15H10.6971C11.4818 15 12.2344 14.6576 12.7893 14.0481C13.3441 13.4386 13.6559 12.612 13.6559 11.75V3.25C13.6559 2.38805 13.3441 1.5614 12.7893 0.951903C12.2344 0.34241 11.4818 0 10.6971 0ZM10.9247 10C10.9241 10.2982 10.816 10.5839 10.624 10.7948C10.4321 11.0056 10.1719 11.1243 9.9005 11.125H3.75536C3.48392 11.1243 3.22376 11.0056 3.03181 10.7948C2.83987 10.5839 2.73177 10.2982 2.73117 10V5C2.73177 4.70183 2.83987 4.41607 3.03181 4.20523C3.22376 3.9944 3.48392 3.87566 3.75536 3.875H9.9005C10.1719 3.87566 10.4321 3.9944 10.624 4.20523C10.816 4.41607 10.9241 4.70183 10.9247 5V10Z" fill="#FF3C2F"/>
</svg>
