<svg xmlns="http://www.w3.org/2000/svg" fill="none" viewBox="-1 -1 24 24" id="News.svg" height="24" width="24"><desc>News Paper Streamline Icon: https://streamlinehq.com</desc><g id="news-paper--newspaper-periodical-fold-content-entertainment"><path id="Rectangle 1100" stroke="#000000" stroke-linecap="round" stroke-linejoin="round" d="M18.75614583333333 3.15998375c-0.23411666666666667 -1.1049133333333332 -1.2182499999999998 -1.8392091666666663 -2.3638541666666666 -1.7818441666666665 -1.3843041666666667 0.06931375 -3.5514875 0.23022541666666668 -6.604399999999999 0.5990599999999999 -3.0529124999999997 0.3688345833333333 -5.1953 0.7285804166666667 -6.555505 0.99083875 -1.1256804166666667 0.21703458333333334 -1.9000391666666663 1.16378625 -1.8555670833333333 2.291611666666667 0.04862458333333333 1.2330083333333333 0.178145 3.0973249999999997 0.49907458333333327 5.669170833333333 0.14519083333333332 1.1635250000000001 0.2927970833333333 2.177220833333333 0.43461458333333336 3.0503458333333335" stroke-width="2"></path><path id="Rectangle 1099" stroke="#000000" stroke-linejoin="round" d="M2.4942775 18.314129166666667c0.10015958333333333 1.1666416666666666 1.0109595833333334 2.037933333333333 2.1792558333333334 2.116858333333333C6.087491666666667 20.52645833333333 8.309308333333334 20.625 11.458333333333332 20.625c3.1490249999999995 0 5.370841666666666 -0.09854166666666667 6.7848 -0.1940125 1.1682916666666665 -0.078925 2.079091666666667 -0.9502166666666666 2.1792374999999997 -2.116858333333333C20.526045833333335 17.106604166666667 20.625 15.306362499999999 20.625 12.833333333333332s-0.09895416666666666 -4.273270833333333 -0.20262916666666667 -5.4807958333333335c-0.10014583333333332 -1.1666416666666666 -1.0109458333333334 -2.037933333333333 -2.1792374999999997 -2.116858333333333C16.829175 5.140208333333333 14.607358333333332 5.041666666666666 11.458333333333332 5.041666666666666c-3.1490249999999995 0 -5.370841666666666 0.09854166666666667 -6.7848 0.1940125 -1.16829625 0.078925 -2.079091666666667 0.9502166666666666 -2.1792558333333334 2.116858333333333C2.3906070833333333 8.5600625 2.2916666666666665 10.360304166666666 2.2916666666666665 12.833333333333332s0.09894041666666667 4.273270833333333 0.20261083333333332 5.4807958333333335Z" stroke-width="2"></path><path id="Vector 1469" stroke="#000000" stroke-linecap="round" stroke-linejoin="round" d="M8.708333333333332 8.708333333333332h-3.6666666666666665" stroke-width="2"></path><path id="Vector 1471" stroke="#000000" stroke-linecap="round" stroke-linejoin="round" d="M8.708333333333332 14.208333333333332h-3.6666666666666665" stroke-width="2"></path><path id="Vector 1472" stroke="#000000" stroke-linecap="round" stroke-linejoin="round" d="M17.875 16.958333333333332H5.041666666666666" stroke-width="2"></path><path id="Vector 1470" stroke="#000000" stroke-linecap="round" stroke-linejoin="round" d="M8.708333333333332 11.458333333333332h-3.6666666666666665" stroke-width="2"></path><path id="Rectangle 1096" stroke="#000000" stroke-linejoin="round" d="M11.498391666666665 13.2103125c0.03941666666666666 0.782375 0.6339208333333333 1.3768791666666667 1.4162958333333333 1.4162958333333333C13.368712499999999 14.649479166666666 13.948870833333334 14.666666666666666 14.666666666666666 14.666666666666666c0.7177958333333333 0 1.2979541666666667 -0.017187499999999998 1.7519791666666664 -0.040058333333333335 0.782375 -0.03941666666666666 1.3768791666666667 -0.6339208333333333 1.4162958333333333 -1.4162958333333333C17.857812499999998 12.7562875 17.875 12.176129166666666 17.875 11.458333333333332c0 -0.7177958333333333 -0.017187499999999998 -1.2979541666666667 -0.040058333333333335 -1.7519791666666664 -0.03941666666666666 -0.782375 -0.6339208333333333 -1.3768791666666667 -1.4162958333333333 -1.4162958333333333C15.964620833333331 8.2671875 15.384462499999998 8.25 14.666666666666666 8.25c-0.7177958333333333 0 -1.2979541666666667 0.017187499999999998 -1.7519791666666664 0.040058333333333335 -0.782375 0.03941666666666666 -1.3768791666666667 0.6339208333333333 -1.4162958333333333 1.4162958333333333C11.475520833333334 10.160379166666665 11.458333333333332 10.7405375 11.458333333333332 11.458333333333332c0 0.7177958333333333 0.017187499999999998 1.2979541666666667 0.040058333333333335 1.7519791666666664Z" stroke-width="2"></path></g></svg>