<svg width="24" height="24" viewBox="0 0 24 24" fill="none" xmlns="http://www.w3.org/2000/svg">
<g clip-path="url(#clip0_795_13)">
<path d="M12 23.25C18.2132 23.25 23.25 18.2132 23.25 12C23.25 5.7868 18.2132 0.75 12 0.75C5.78679 0.75 0.75 5.7868 0.75 12C0.75 18.2132 5.78679 23.25 12 23.25Z" stroke="#761212" stroke-width="1.5" stroke-linecap="round" stroke-linejoin="round"/>
<path d="M3.46191 4.67578C10.5819 4.67578 9.06191 8.46178 15.3619 8.46178C17.5924 8.16447 19.731 7.38324 21.6279 6.17278" stroke="#761212" stroke-width="1.5" stroke-linecap="round" stroke-linejoin="round"/>
<path d="M5 11.25C4.86192 11.25 4.75 11.1381 4.75 11C4.75 10.8619 4.86192 10.75 5 10.75" stroke="#761212" stroke-width="1.5"/>
<path d="M5 11.25C5.13807 11.25 5.25 11.1381 5.25 11C5.25 10.8619 5.13807 10.75 5 10.75" stroke="#761212" stroke-width="1.5"/>
<path d="M8 14.25C7.86192 14.25 7.75 14.1381 7.75 14C7.75 13.8619 7.86192 13.75 8 13.75" stroke="#761212" stroke-width="1.5"/>
<path d="M8 14.25C8.13807 14.25 8.25 14.1381 8.25 14C8.25 13.8619 8.13807 13.75 8 13.75" stroke="#761212" stroke-width="1.5"/>
<path d="M17 15.25C16.8619 15.25 16.75 15.1381 16.75 15C16.75 14.8619 16.8619 14.75 17 14.75" stroke="#761212" stroke-width="1.5"/>
<path d="M17 15.25C17.1381 15.25 17.25 15.1381 17.25 15C17.25 14.8619 17.1381 14.75 17 14.75" stroke="#761212" stroke-width="1.5"/>
<path d="M19 11.25C18.8619 11.25 18.75 11.1381 18.75 11C18.75 10.8619 18.8619 10.75 19 10.75" stroke="#761212" stroke-width="1.5"/>
<path d="M19 11.25C19.1381 11.25 19.25 11.1381 19.25 11C19.25 10.8619 19.1381 10.75 19 10.75" stroke="#761212" stroke-width="1.5"/>
<path d="M4.85791 20.7318C6.03491 19.3758 8.78891 18.4238 11.9999 18.4238C15.1919 18.4238 17.9329 19.3648 19.1209 20.7088" stroke="#761212" stroke-width="1.5" stroke-linecap="round" stroke-linejoin="round"/>
</g>
<defs>
<clipPath id="clip0_795_13">
<rect width="24" height="24" fill="white"/>
</clipPath>
</defs>
</svg>
