<svg width="24" height="24" viewBox="0 0 24 24" fill="none" xmlns="http://www.w3.org/2000/svg">
<g clip-path="url(#clip0_731_161)">
<path d="M0.75 12C0.75 14.9837 1.93526 17.8452 4.04505 19.955C6.15483 22.0647 9.01631 23.25 12 23.25C14.9837 23.25 17.8452 22.0647 19.955 19.955C22.0647 17.8452 23.25 14.9837 23.25 12C23.25 9.01631 22.0647 6.15483 19.955 4.04505C17.8452 1.93526 14.9837 0.75 12 0.75C9.01631 0.75 6.15483 1.93526 4.04505 4.04505C1.93526 6.15483 0.75 9.01631 0.75 12Z" stroke="#B6AF00" stroke-width="1.5" stroke-linecap="round" stroke-linejoin="round"/>
<path d="M3.68506 12.0001C3.68506 13.092 3.90013 14.1732 4.318 15.1821C4.73587 16.1909 5.34835 17.1075 6.12047 17.8797C6.89258 18.6518 7.80922 19.2642 8.81805 19.6821C9.82687 20.1 10.9081 20.3151 12.0001 20.3151C13.092 20.3151 14.1732 20.1 15.1821 19.6821C16.1909 19.2642 17.1075 18.6518 17.8797 17.8797C18.6518 17.1075 19.2642 16.1909 19.6821 15.1821C20.1 14.1732 20.3151 13.092 20.3151 12.0001C20.3151 9.79478 19.439 7.67983 17.8797 6.12047C16.3203 4.5611 14.2053 3.68506 12.0001 3.68506C9.79478 3.68506 7.67983 4.5611 6.12047 6.12047C4.5611 7.67983 3.68506 9.79478 3.68506 12.0001Z" stroke="#B6AF00" stroke-width="1.5" stroke-linecap="round" stroke-linejoin="round"/>
<path d="M12.5761 6.9698L13.8301 9.5538H16.2711C16.3942 9.54947 16.5157 9.58316 16.619 9.65027C16.7223 9.71739 16.8025 9.81469 16.8486 9.92894C16.8947 10.0432 16.9045 10.1689 16.8766 10.2889C16.8488 10.4089 16.7847 10.5175 16.6931 10.5998L14.5741 12.8138L15.7481 15.5138C15.7992 15.6372 15.8105 15.7736 15.7802 15.9037C15.75 16.0339 15.6798 16.1513 15.5794 16.2395C15.4791 16.3277 15.3536 16.3823 15.2207 16.3956C15.0877 16.409 14.9539 16.3803 14.8381 16.3138L12.0001 14.7168L9.16308 16.3168C9.0472 16.3837 8.91326 16.4126 8.7801 16.3995C8.64694 16.3863 8.52124 16.3318 8.4207 16.2435C8.32015 16.1552 8.24981 16.0376 8.21956 15.9072C8.18931 15.7769 8.20069 15.6403 8.25208 15.5168L9.42608 12.8168L7.30808 10.5998C7.21665 10.5176 7.15266 10.4094 7.12477 10.2896C7.09689 10.1699 7.10645 10.0445 7.15216 9.93042C7.19786 9.81631 7.27752 9.71899 7.38035 9.65163C7.48317 9.58427 7.60421 9.55012 7.72708 9.5538H10.1681L11.4251 6.9698C11.4797 6.86428 11.5622 6.77581 11.6637 6.71405C11.7652 6.65229 11.8818 6.61963 12.0006 6.61963C12.1194 6.61963 12.2359 6.65229 12.3374 6.71405C12.4389 6.77581 12.5215 6.86428 12.5761 6.9698Z" stroke="#B6AF00" stroke-width="1.5" stroke-linecap="round" stroke-linejoin="round"/>
</g>
<defs>
<clipPath id="clip0_731_161">
<rect width="24" height="24" fill="white"/>
</clipPath>
</defs>
</svg>
