<svg id="Ibm-Elo-Engineering-Insights--Streamline-Carbon.svg" xmlns="http://www.w3.org/2000/svg" viewBox="-0.5 -0.5 24 24" height="24" width="24"><desc>Ibm Elo Engineering Insights Streamline Icon: https://streamlinehq.com</desc><defs></defs><path d="M14.375 11.5c-0.066484375 0 -0.1288 0.015093750000000001 -0.19406250000000003 0.019621875l-0.6408375 -1.9221531250000001C14.044446874999998 9.202659375 14.375 8.595171875 14.375 7.90625c0 -1.189028125 -0.9672218749999999 -2.15625 -2.15625 -2.15625s-2.15625 0.9672218749999999 -2.15625 2.15625c0 0.2734125 0.05635 0.5327375 0.1495 0.77351875l-1.956725 1.6768437500000002C7.939096875 10.174840625 7.577781249999999 10.0625 7.1875 10.0625c-1.189028125 0 -2.15625 0.9672218749999999 -2.15625 2.15625s0.9672218749999999 2.15625 2.15625 2.15625c0.712640625 0 1.34046875 -0.351684375 1.7333375 -0.8857875l2.59023125 0.7770406249999999c-0.0014375 0.036871875 -0.01106875 0.0715875 -0.01106875 0.10881875 0 1.585275 1.289725 2.875 2.875 2.875s2.875 -1.289725 2.875 -2.875 -1.289725 -2.875 -2.875 -2.875Zm-2.15625 -4.3125c0.396246875 0 0.71875 0.322503125 0.71875 0.71875s-0.322503125 0.71875 -0.71875 0.71875 -0.71875 -0.322503125 -0.71875 -0.71875 0.322503125 -0.71875 0.71875 -0.71875Zm-5.03125 5.75c-0.396246875 0 -0.71875 -0.322503125 -0.71875 -0.71875s0.322503125 -0.71875 0.71875 -0.71875 0.71875 0.322503125 0.71875 0.71875 -0.322503125 0.71875 -0.71875 0.71875Zm2.145396875 -0.8254125000000001c-0.011571875 -0.23409687499999998 -0.057931250000000004 -0.4579875 -0.138646875 -0.666784375l1.956725 -1.6768437500000002c0.304965625 0.175446875 0.652625 0.2829 1.02738125 0.289871875l0.63609375 1.908496875c-0.36268125 0.23582187500000001 -0.663334375 0.553078125 -0.888590625 0.92301875l-2.593034375 -0.7776875000000001ZM14.375 15.8125c-0.79278125 0 -1.4375 -0.645078125 -1.4375 -1.4375s0.64471875 -1.4375 1.4375 -1.4375 1.4375 0.645078125 1.4375 1.4375 -0.64471875 1.4375 -1.4375 1.4375Z" stroke-width="1"></path><path d="M19.762821875 7.089606249999999 11.5 2.269596875 5.393428125 5.831793749999999 4.669071875 4.5901531250000005l6.46875 -3.7735093749999997C11.249803125 0.7513812500000001 11.374865625 0.71875 11.5 0.71875s0.25019687500000004 0.03263125 0.362178125 0.09789374999999999l8.625 5.03125 -0.72435625 1.241640625Z" stroke-width="1"></path><path d="m11.862178125000002 22.18335625 -0.72435625 -1.241640625L19.40625 16.118471875V8.625h1.4375v7.90625c0 0.255659375 -0.13584375 0.49205625 -0.356571875 0.62085625l-8.625 5.03125Z" stroke-width="1"></path><path d="m8.981571875 20.92554375 -6.46875 -3.7734375C2.2920937500000003 17.02330625 2.15625 16.786909375 2.15625 16.53125V6.46875h1.4375v9.649721875000001l6.112178125 3.56543125 -0.72435625 1.241640625Z" stroke-width="1"></path><path id="_Transparent_Rectangle_" d="M0 0h23v23H0Z" stroke-width="1" fill="none"></path></svg>