<svg xmlns="http://www.w3.org/2000/svg" viewBox="-0.5 -0.5 35 35" fill="currentColor" id="User-Check--Streamline-Phosphor.svg" height="35" width="35"><desc>User Check Streamline Icon: https://streamlinehq.com</desc><path d="M18.1069390625 22.234884375c6.1699906250000005 -3.84288984375 5.8661953124999995 -12.9239046875 -0.5468421875 -16.3458453125 -6.4130375 -3.42192734375 -14.12552578125 1.38168828125 -13.8824921875 8.64650546875 0.10528046875 3.1470851562499997 1.77239609375 6.03461484375 4.445221093750001 7.69933984375 -2.86748828125 0.9387054687499999 -5.4475171875 2.69252109375 -7.5221015625 5.161465625 -0.55052109375 0.6547390625 -0.18581796875 1.6598906249999998 0.6564523437500001 1.809278125 0.39090703125 0.069328125 0.7890921875 -0.07514531249999999 1.0445968749999999 -0.37900703125 2.7869375 -3.3271125 6.62783515625 -5.15868984375 10.80616953125 -5.15868984375s8.01921875 1.8315773437499998 10.813115625 5.15868984375c0.5505078124999999 0.6547390625 1.6033523437500001 0.46799140624999996 1.8951015625 -0.336121875 0.135415625 -0.373203125 0.0614390625 -0.7902875 -0.19405234375000002 -1.0941492187500002 -2.074584375 -2.46894453125 -4.6546265625 -4.22276015625 -7.51516875 -5.161465625Zm-12.21977265625 -8.00951015625c0 -5.558548437500001 6.017309375 -9.0326578125 10.83116484375 -6.2533703125 4.8138421875 2.7792742187500004 4.8138421875 9.727466406249999 0 12.50675390625 -1.0976953125 0.6337546875 -2.3428789062499997 0.96739296875 -3.61038828125 0.96739296875 -3.986021875 -0.0045953125 -7.21619453125 -3.2347546874999997 -7.2207765625 -7.2207765625Zm27.44728359375 4.6740703125 -4.4435609375 4.44354765625c-0.433925 0.43441640625 -1.13797734375 0.43441640625 -1.57190234375 0l-2.22178046875 -2.2217671875000002c-0.60502734375 -0.60502734375 -0.32820625000000003 -1.6381359375 0.49827265625 -1.8595875 0.38357578125 -0.10278359375 0.7928375 0.0068796874999999995 1.0736296875 0.28767187499999997l1.43582265625 1.4372171875000002 3.657603125 -3.65899765625c0.60502734375 -0.60502734375 1.6381359375 -0.32820625000000003 1.8595875 0.4982859375 0.10278359375 0.3835625 -0.0068796874999999995 0.7928375 -0.28767187499999997 1.0736296875Z" stroke-width="1"></path></svg>