<svg xmlns="http://www.w3.org/2000/svg" viewBox="-0.5 -0.5 24 24" fill="currentColor" id="User-Check--Streamline-Phosphor.svg" height="24" width="24"><desc>User Check Streamline Icon: https://streamlinehq.com</desc><path d="M12.24881171875 15.041245312500001c4.1738171875 -2.599601953125 3.96830859375 -8.74264140625 -0.36992265625 -11.05748359375 -4.33823125 -2.314833203125 -9.555502734375 0.934671484375 -9.39109765625 5.849106640625 0.071219140625 2.128910546875 1.198973828125 4.082239453125 3.0070613281250003 5.208376953125 -1.9397714843749998 0.635006640625 -3.6850851562499995 1.821411328125 -5.08848046875 3.4915796875 -0.372411328125 0.44291171875 -0.125700390625 1.1228671875 0.444070703125 1.2239234374999999 0.264437109375 0.0468984375 0.53379765625 -0.050833593749999996 0.7066390625 -0.256387109375 1.8852812500000002 -2.25069375 4.483535546875 -3.4897019531250004 7.310055859375 -3.4897019531250004s5.424765625 1.239008203125 7.3147546875 3.4897019531250004c0.37240234375 0.44291171875 1.084620703125 0.31658242187499996 1.28198046875 -0.22737656250000002 0.0916046875 -0.2524609375 0.041561718750000004 -0.5346062500000001 -0.131270703125 -0.7401597656250001 -1.4033953125 -1.670168359375 -3.1487179687499998 -2.856573046875 -5.083790625 -3.4915796875Zm-8.266316796875 -5.418198046875c0 -3.7601945312500002 4.070532812500001 -6.11032734375 7.326964453125 -4.23022109375 3.25642265625 1.8800972656250001 3.25642265625 6.580344921875 0 8.460451171875 -0.7425585937500001 0.42871640624999996 -1.584888671875 0.654412890625 -2.4423214843750003 0.654412890625 -2.6964265625 -0.00310859375 -4.881543359375 -2.18821640625 -4.884642968750001 -4.884642968750001Zm18.567280078125002 3.16187109375 -3.00593828125 3.0059292968749998c-0.2935375 0.293869921875 -0.7698082031250001 0.293869921875 -1.063345703125 0l-1.502969140625 -1.50296015625c-0.40928320312500005 -0.40928320312500005 -0.222021875 -1.10815078125 0.337066796875 -1.2579562499999999 0.259477734375 -0.069530078125 0.5363312499999999 0.00465390625 0.72627890625 0.1946015625l0.971291796875 0.97223515625 2.4742609375 -2.475204296875c0.40928320312500005 -0.40928320312500005 1.10815078125 -0.222021875 1.2579562499999999 0.33707578125 0.069530078125 0.25946874999999997 -0.00465390625 0.5363312499999999 -0.1946015625 0.72627890625Z" stroke-width="1"></path></svg>