<svg xmlns="http://www.w3.org/2000/svg" fill="none" viewBox="-1 -1 24 24" id="Play-List-1--Streamline-Plump.svg" height="24" width="24"><desc>Play List 1 Streamline Icon: https://streamlinehq.com</desc><g id="play-list-1--screen-television-display-player-movies-movie-tv-media-players-video-entertainment"><path id="Rectangle 1104" stroke="#000000" stroke-linecap="round" stroke-linejoin="round" d="M1.6220416666666666 3.784458333333333c0.09533333333333333 -1.1710416666666668 0.9913749999999999 -2.067083333333333 2.1624166666666667 -2.1624166666666667C5.263958333333333 1.5019583333333333 7.624833333333332 1.375 11 1.375c3.3751666666666664 0 5.736041666666667 0.12695833333333334 7.215541666666667 0.24704166666666666 1.1710416666666668 0.09533333333333333 2.067083333333333 0.9913749999999999 2.1624166666666667 2.1624166666666667C20.498041666666666 5.263958333333333 20.625 7.624833333333332 20.625 11c0 3.3751666666666664 -0.12695833333333334 5.736041666666667 -0.24704166666666666 7.215541666666667 -0.09533333333333333 1.1710416666666668 -0.9913749999999999 2.067083333333333 -2.1624166666666667 2.1624166666666667C16.736041666666665 20.498041666666666 14.375166666666667 20.625 11 20.625c-3.3751666666666664 0 -5.736041666666667 -0.12695833333333334 -7.215541666666667 -0.24704166666666666 -1.1710416666666668 -0.09533333333333333 -2.067083333333333 -0.9913749999999999 -2.1624166666666667 -2.1624166666666667C1.5019583333333333 16.736041666666665 1.375 14.375166666666667 1.375 11c0 -3.3751666666666664 0.12695833333333334 -5.736041666666667 0.24704166666666666 -7.215541666666667Z" stroke-width="2"></path><path id="Rectangle 128" stroke="#000000" stroke-linecap="round" stroke-linejoin="round" d="M7.953458333333334 10.94225c0.11458333333333333 -0.7929166666666666 0.8135416666666666 -1.2439166666666666 1.560625 -0.9551666666666666 0.5243333333333333 0.20304166666666665 1.2310833333333333 0.5192916666666666 2.160125 1.0129166666666667 0.88825 0.4720833333333333 1.573 0.889625 2.09 1.2352083333333332 0.80575 0.5385416666666667 0.80575 1.5743749999999999 0 2.1129166666666666 -0.5169999999999999 0.3455833333333333 -1.2017499999999999 0.7631249999999999 -2.09 1.2352083333333332 -0.9290416666666667 0.493625 -1.6357916666666665 0.8098749999999999 -2.160125 1.0129166666666667 -0.7470833333333332 0.28875 -1.4460416666666664 -0.16224999999999998 -1.560625 -0.9551666666666666A16.496333333333332 16.496333333333332 0 0 1 7.791666666666666 13.291666666666666c0 -0.9524166666666666 0.07470833333333333 -1.7462499999999999 0.16179166666666664 -2.349416666666667Z" stroke-width="2"></path><path id="Intersect" stroke="#000000" stroke-linecap="round" stroke-linejoin="round" d="M20.53608333333333 6.416666666666666H1.4648333333333334" stroke-width="2"></path><path id="Vector 167" stroke="#000000" stroke-linecap="round" stroke-linejoin="round" d="m9.299125 1.4437499999999999 -3.670333333333333 4.893624999999999" stroke-width="2"></path><path id="Vector 168" stroke="#000000" stroke-linecap="round" stroke-linejoin="round" d="m16.828625 1.54825 -3.5988333333333333 4.798291666666667" stroke-width="2"></path></g></svg>